<?xml version="1.0" standalone="no"?>
<!DOCTYPE svg PUBLIC "-//W3C//DTD SVG 20010904//EN"
 "http://www.w3.org/TR/2001/REC-SVG-20010904/DTD/svg10.dtd">
<svg version="1.0" xmlns="http://www.w3.org/2000/svg"
 width="4408.000000pt" height="2138.000000pt" viewBox="0 0 4408.000000 2138.000000"
 preserveAspectRatio="xMidYMid meet">

<g transform="translate(0.000000,2138.000000) scale(0.100000,-0.100000)"
fill="#000000" stroke="none">
<path d="M25885 17703 c-431 -14 -677 -26 -820 -38 -93 -8 -249 -22 -345 -30
-361 -31 -662 -74 -1130 -159 -94 -18 -611 -123 -760 -156 -52 -11 -124 -27
-160 -34 -182 -39 -727 -171 -870 -211 -476 -132 -1297 -424 -2227 -790 -437
-173 -838 -354 -1413 -642 -741 -370 -1101 -571 -1780 -997 -746 -467 -928
-592 -1425 -977 -66 -51 -194 -149 -285 -218 -192 -146 -378 -293 -505 -401
-49 -41 -106 -87 -125 -100 -63 -44 -220 -184 -417 -373 -56 -54 -107 -96
-112 -93 -6 4 -10 88 -11 199 -1 266 -21 545 -56 772 -59 384 -117 613 -248
974 -52 144 -171 364 -258 478 -144 190 -277 296 -424 339 -70 20 -312 32
-373 18 -59 -13 -121 -55 -191 -131 -54 -58 -57 -60 -119 -67 -35 -4 -134 -23
-220 -42 l-156 -34 -50 34 c-74 51 -119 66 -195 66 -136 0 -234 -51 -350 -181
-212 -237 -306 -403 -424 -748 -51 -147 -146 -510 -146 -555 0 -16 -7 -70 -15
-120 -53 -330 -69 -562 -69 -1001 0 -371 8 -489 54 -849 88 -677 307 -1290
568 -1592 117 -136 290 -251 412 -275 85 -16 249 -13 285 5 33 16 128 95 160
131 15 18 41 27 110 39 50 9 108 21 130 26 22 5 60 12 85 15 25 4 59 10 75 15
17 5 94 16 172 25 l143 16 35 -27 c80 -61 235 -33 334 60 149 141 247 278 391
551 29 55 56 105 60 110 4 6 19 30 32 55 59 106 71 126 84 141 8 8 14 19 14
23 0 5 14 25 30 46 16 21 30 41 30 45 0 6 148 206 214 289 180 225 371 422
648 667 271 240 501 417 818 632 91 61 246 166 345 234 99 67 232 157 295 199
63 43 192 132 285 199 215 153 340 237 535 357 85 52 175 109 200 126 25 16
64 40 88 53 52 29 64 36 119 72 24 15 45 27 48 27 3 0 23 11 45 25 70 44 148
85 475 250 354 179 428 217 435 226 10 10 375 189 388 189 6 0 12 5 12 10 0 6
5 10 10 10 6 0 241 114 523 254 689 342 970 470 1352 616 121 46 195 78 355
152 36 16 74 34 85 38 88 38 119 51 183 74 39 14 102 37 140 51 37 13 96 34
132 45 36 12 73 25 82 31 10 5 23 9 29 9 6 0 25 6 42 14 69 29 178 69 337 123
25 8 54 19 65 24 107 45 1191 402 1455 479 58 17 134 39 170 50 36 11 148 42
250 70 102 27 199 54 215 59 37 12 256 69 310 81 22 5 69 16 105 25 84 21 178
42 260 60 36 7 97 21 135 30 39 9 102 23 140 32 39 8 88 19 110 25 22 5 83 18
135 28 52 10 115 23 140 28 181 39 243 51 300 57 36 4 81 11 100 15 19 5 71
14 115 20 44 7 121 18 170 25 50 7 133 18 185 25 52 6 120 15 151 20 30 6 82
10 115 11 32 0 91 4 129 9 343 47 647 69 1075 80 699 16 1113 30 1249 41 198
15 531 16 626 1 357 -58 1183 -257 1515 -365 25 -8 86 -27 135 -42 123 -37
425 -134 450 -145 11 -5 128 -43 260 -86 132 -42 260 -85 285 -94 25 -10 77
-28 115 -40 39 -12 180 -65 315 -117 135 -52 317 -122 405 -155 680 -256 826
-317 1125 -470 358 -184 719 -366 825 -415 309 -143 844 -402 920 -445 692
-395 1720 -1344 2436 -2248 348 -440 558 -754 679 -1020 24 -52 59 -129 78
-170 104 -227 274 -705 347 -975 39 -146 64 -248 79 -320 10 -44 21 -98 26
-120 20 -89 62 -337 80 -480 58 -448 59 -1009 4 -1385 -16 -110 -95 -377 -144
-485 -5 -11 -23 -58 -41 -105 -44 -116 -162 -343 -258 -497 -164 -265 -327
-466 -591 -733 -167 -169 -290 -265 -430 -335 -30 -15 -77 -44 -105 -64 -104
-78 -437 -249 -705 -363 -742 -316 -1524 -467 -2232 -429 -1171 62 -1992 577
-2376 1491 -109 261 -173 519 -212 855 -37 317 -26 812 26 1180 138 984 529
1952 1054 2610 380 476 823 782 1293 894 297 71 626 67 917 -10 197 -52 418
-146 580 -246 196 -121 434 -331 585 -518 321 -395 531 -883 621 -1440 21
-136 30 -502 15 -647 -56 -530 -213 -995 -403 -1190 -90 -92 -131 -96 -219
-21 -150 128 -247 312 -296 563 -15 74 -17 171 -18 740 -1 684 -4 741 -50 960
-75 357 -268 611 -543 714 -137 51 -187 59 -357 59 -181 0 -280 -17 -464 -79
-546 -182 -1064 -687 -1381 -1346 -280 -584 -399 -1178 -330 -1643 25 -168 43
-246 85 -371 62 -187 135 -309 281 -475 202 -230 426 -384 679 -467 130 -43
220 -56 390 -56 183 -1 249 10 475 76 53 15 246 109 325 158 173 106 352 273
444 414 42 64 62 107 120 251 7 18 14 14 72 -40 93 -88 219 -198 255 -222 49
-35 165 -89 224 -106 542 -155 1167 249 1525 988 250 515 344 1245 249 1930
-83 602 -385 1309 -761 1780 -393 493 -1055 980 -1548 1139 -495 160 -1157
179 -1745 50 -704 -155 -1273 -504 -1837 -1125 -167 -185 -495 -576 -601 -717
-238 -317 -401 -600 -515 -892 -175 -448 -302 -972 -368 -1525 -45 -371 -24
-914 52 -1370 23 -135 117 -612 154 -780 72 -322 149 -513 325 -805 208 -348
444 -636 771 -945 422 -399 1044 -751 1649 -933 440 -133 738 -177 1190 -177
448 0 809 52 1420 205 814 203 1347 440 1912 851 464 337 983 836 1310 1259
197 256 412 632 501 880 255 707 333 1051 357 1570 18 384 -18 979 -84 1400
-73 463 -214 940 -413 1395 -52 121 -293 603 -328 660 -18 28 -55 94 -83 147
-29 53 -77 138 -107 189 -30 50 -55 93 -55 95 0 5 -91 136 -191 274 -54 74
-117 162 -141 195 -135 189 -278 373 -364 465 -191 205 -591 597 -719 704
-518 431 -1484 1091 -2020 1381 -38 21 -117 64 -175 95 -141 78 -719 360 -735
360 -3 0 -44 19 -92 43 -48 23 -119 55 -158 71 -272 112 -361 148 -380 157
-11 5 -92 36 -180 68 -234 86 -357 132 -380 141 -11 5 -56 20 -100 34 -44 14
-152 50 -240 80 -176 60 -311 102 -545 172 -276 81 -313 92 -415 119 -55 14
-143 38 -195 51 -52 14 -108 29 -125 34 -72 21 -114 32 -175 46 -36 8 -83 19
-105 25 -22 5 -71 16 -110 24 -38 8 -124 26 -190 40 -66 14 -156 32 -199 40
-43 8 -88 17 -98 21 -11 3 -30 7 -41 9 -12 2 -67 11 -122 20 -154 26 -363 56
-625 91 -63 8 -144 19 -180 24 -36 5 -101 13 -145 19 -44 5 -168 21 -275 35
-376 47 -540 61 -915 76 -255 9 -347 18 -560 50 -105 16 -219 32 -515 70 -374
49 -831 84 -1280 99 -231 7 -921 10 -1095 4z m464 -63 c47 -6 88 -13 93 -16 7
-5 -24 -69 -41 -84 -4 -3 -11 -14 -18 -25 -16 -27 -105 -175 -120 -200 -7 -11
-17 -30 -22 -42 -14 -30 -15 -30 -136 -43 -61 -6 -146 -17 -190 -25 -89 -16
-191 -22 -201 -12 -6 6 16 82 43 144 7 17 13 37 13 45 0 8 3 18 7 21 3 4 18
43 33 87 15 44 30 83 33 87 4 3 7 15 7 25 0 11 5 29 11 40 11 21 16 21 208 15
108 -4 234 -11 280 -17z m758 -15 c42 -18 41 -35 -4 -87 -21 -24 -41 -47 -45
-53 -4 -5 -28 -32 -54 -60 -25 -27 -57 -65 -71 -83 -37 -46 -76 -64 -152 -68
-59 -2 -284 -18 -398 -28 -28 -2 -43 1 -43 8 0 12 84 142 107 164 7 7 13 16
13 20 0 4 14 23 30 42 16 19 34 40 40 47 5 6 19 30 31 52 25 48 31 53 84 63
65 11 425 -2 462 -17z m-1390 -12 c-9 -50 -28 -118 -37 -134 -5 -9 -11 -37
-15 -63 -4 -25 -11 -49 -16 -52 -5 -3 -9 -13 -9 -23 0 -18 -24 -105 -41 -148
-4 -12 -19 -24 -31 -27 -83 -16 -193 -36 -248 -45 -36 -6 -103 -17 -150 -26
-47 -8 -107 -15 -134 -15 -48 0 -48 0 -42 28 19 84 54 259 79 402 l13 75 69 7
c39 3 126 11 195 18 69 6 163 15 210 19 47 4 102 9 124 10 37 1 38 0 33 -26z
m2031 -24 c23 -7 42 -14 42 -17 0 -6 -66 -80 -156 -174 -71 -75 -60 -71 -275
-83 -114 -6 -329 4 -329 15 0 3 60 67 133 141 l132 134 205 -3 c113 -1 224 -7
248 -13z m-2868 -100 c-6 -41 -18 -114 -26 -164 -7 -49 -18 -119 -24 -155 -26
-166 -6 -145 -165 -170 -38 -6 -79 -15 -90 -20 -11 -5 -45 -13 -75 -19 -30 -5
-100 -20 -155 -32 -55 -13 -125 -23 -155 -23 l-55 0 -3 281 -2 281 42 6 c24 3
97 12 163 20 66 8 163 22 215 31 52 9 142 22 200 30 57 8 109 16 115 19 22 8
26 -14 15 -85z m3234 69 c195 -14 203 -19 135 -81 -24 -22 -68 -62 -97 -89
-28 -26 -58 -49 -65 -49 -41 -5 -79 -7 -234 -14 -216 -10 -215 -10 -107 112
43 48 90 101 104 116 21 24 30 28 60 23 19 -3 111 -11 204 -18z m424 -49 c53
-6 107 -17 120 -25 32 -21 29 -59 -5 -72 -63 -25 -443 -65 -443 -48 0 5 30 41
68 82 65 71 68 73 115 74 27 0 92 -5 145 -11z m-4617 -169 c-1 -52 -4 -188 -7
-303 l-7 -207 -26 -6 c-14 -3 -33 -8 -41 -12 -8 -3 -40 -11 -70 -18 -30 -7
-77 -18 -105 -24 -27 -6 -59 -15 -70 -20 -11 -5 -38 -14 -60 -19 -22 -5 -67
-17 -100 -26 -33 -9 -86 -20 -118 -26 -32 -5 -67 -13 -77 -19 -23 -13 -26 -4
-40 120 -16 144 -39 322 -49 385 -5 33 -10 74 -10 91 -1 30 1 32 50 38 28 4
58 11 67 16 16 9 42 14 217 45 157 27 275 51 375 75 72 17 73 16 71 -90z
m6015 25 c81 -14 163 -25 181 -25 50 0 90 -24 98 -60 4 -16 11 -32 16 -35 5
-4 9 -15 9 -26 0 -27 -24 -25 -170 17 -69 20 -138 39 -155 44 -137 35 -205 59
-205 71 0 12 42 39 61 39 10 0 84 -11 165 -25z m598 -74 c54 -5 71 -10 80 -26
6 -11 14 -22 18 -25 3 -3 10 -19 14 -35 4 -17 10 -34 14 -40 4 -5 10 -27 13
-49 l6 -38 -49 6 c-27 4 -106 25 -175 47 l-126 40 -20 45 c-41 96 -43 92 63
87 51 -3 124 -8 162 -12z m415 -36 c85 -8 162 -15 171 -15 16 0 19 -13 24 -92
3 -51 8 -119 12 -150 l6 -58 -30 0 c-17 0 -81 16 -144 36 -62 20 -131 41 -153
46 -46 12 -85 49 -85 82 0 13 -9 49 -20 81 -11 32 -20 64 -20 71 0 15 26 23
60 18 14 -2 94 -11 179 -19z m-7993 -80 c5 -33 13 -67 16 -75 7 -16 20 -90 43
-250 8 -52 19 -124 25 -160 6 -35 8 -70 6 -76 -3 -7 -24 -15 -48 -19 -24 -4
-47 -11 -53 -15 -5 -4 -25 -11 -43 -15 -18 -4 -45 -13 -60 -21 -15 -8 -35 -14
-44 -14 -9 0 -19 -4 -22 -9 -4 -5 -25 -12 -49 -16 -23 -4 -46 -11 -52 -15 -5
-4 -26 -11 -45 -15 -19 -4 -39 -11 -45 -15 -5 -4 -26 -11 -45 -15 -19 -4 -39
-11 -45 -15 -5 -4 -29 -11 -52 -15 l-41 -7 -30 64 c-16 35 -37 86 -46 113 -10
28 -21 57 -26 65 -4 9 -11 31 -15 50 -4 19 -11 41 -15 50 -5 8 -18 44 -30 80
-12 36 -26 74 -30 85 -13 31 -40 123 -40 134 0 5 15 12 33 16 17 3 41 10 52
15 11 5 40 13 65 18 25 6 99 24 165 42 141 37 221 55 390 90 65 13 69 10 81
-55z m8347 45 c23 -5 92 -19 152 -30 126 -25 143 -35 127 -77 -6 -15 -14 -88
-18 -161 -4 -73 -10 -134 -13 -137 -4 -2 -23 0 -42 5 -39 10 -272 90 -278 96
-2 2 -5 36 -7 76 -2 40 -7 110 -10 156 l-7 82 27 0 c15 0 46 -4 69 -10z m601
-131 c188 -46 191 -48 161 -105 -8 -16 -15 -37 -15 -46 0 -9 -4 -19 -9 -22 -5
-4 -12 -24 -16 -46 -4 -22 -11 -42 -16 -46 -5 -3 -9 -13 -9 -23 0 -22 -30
-122 -40 -134 -4 -5 -36 3 -71 16 -35 14 -86 33 -114 42 -131 46 -171 74 -146
101 8 8 14 54 38 263 l5 43 56 -6 c30 -4 110 -20 176 -37z m341 -90 c22 -6 67
-16 100 -24 33 -7 87 -21 120 -30 33 -9 72 -19 88 -22 32 -6 33 -11 6 -71 -11
-26 -25 -58 -30 -72 -6 -14 -17 -38 -25 -53 -8 -16 -14 -33 -14 -39 0 -5 -7
-26 -16 -46 -8 -21 -21 -50 -28 -67 -37 -85 -36 -84 -70 -73 -17 6 -35 14 -41
18 -5 4 -50 21 -100 38 -128 44 -185 71 -185 87 0 8 4 15 9 15 5 0 12 17 16
38 4 20 10 42 14 47 4 6 17 44 30 85 12 41 27 83 32 92 5 10 9 25 9 33 0 20
22 55 35 55 5 0 28 -5 50 -11z m-10269 -46 c4 -15 13 -38 20 -52 8 -14 14 -32
14 -39 0 -7 4 -20 9 -30 22 -39 40 -84 46 -112 4 -16 11 -32 16 -35 5 -4 9
-13 9 -22 0 -8 6 -29 14 -46 26 -63 38 -92 58 -152 11 -33 24 -64 29 -69 26
-28 4 -43 -111 -76 -41 -12 -84 -26 -95 -31 -11 -5 -33 -13 -50 -18 -16 -5
-88 -30 -160 -56 -162 -58 -273 -95 -285 -95 -5 0 -11 9 -15 20 -3 11 -38 75
-77 142 -39 68 -79 136 -87 153 -9 16 -19 32 -22 35 -3 3 -8 12 -11 21 -4 9
-36 65 -72 124 -68 111 -77 135 -50 135 18 0 112 28 135 40 9 5 34 12 55 16
22 3 44 10 49 14 6 4 26 11 45 15 19 4 41 11 50 15 8 4 42 15 75 25 33 10 78
23 100 30 22 7 67 21 100 30 33 9 80 22 105 30 73 22 98 19 106 -12z m10779
-84 c22 -6 47 -14 56 -19 9 -5 37 -11 63 -15 25 -4 48 -11 51 -15 3 -5 29 -11
58 -15 28 -4 57 -11 62 -15 6 -4 32 -11 59 -15 89 -12 89 -12 47 -99 -15 -34
-36 -79 -46 -101 -10 -22 -35 -76 -56 -120 -21 -44 -41 -93 -45 -108 -8 -33
-29 -45 -53 -30 -9 6 -32 14 -51 18 -19 4 -39 11 -45 15 -5 4 -26 11 -45 15
-19 4 -41 11 -50 15 -17 9 -69 27 -178 60 -41 13 -76 29 -79 36 -2 6 5 34 17
61 12 26 28 64 36 83 8 19 19 43 24 52 6 10 10 23 10 29 0 10 6 25 48 121 10
21 20 38 25 38 4 0 7 7 7 16 0 12 6 15 23 9 12 -3 40 -11 62 -16z m720 -220
c33 -12 74 -27 92 -35 17 -8 37 -14 45 -14 8 0 18 -3 21 -7 4 -3 43 -18 87
-33 44 -15 83 -30 87 -33 3 -4 16 -7 29 -7 23 0 38 -22 25 -36 -5 -5 -31 -52
-59 -104 -81 -154 -87 -165 -92 -170 -5 -5 -18 -29 -63 -113 -21 -40 -48 -59
-55 -39 -2 7 -8 12 -13 12 -6 0 -31 9 -57 21 -89 39 -136 57 -257 99 -130 46
-161 63 -157 86 3 18 43 121 79 204 31 73 105 215 115 221 6 4 33 -2 62 -13
28 -10 78 -28 111 -39z m-12517 9 c24 -30 247 -407 297 -503 l54 -105 -47 -20
c-26 -11 -55 -25 -64 -30 -10 -6 -23 -10 -29 -10 -6 0 -25 -6 -42 -14 -18 -8
-68 -29 -112 -47 -44 -17 -108 -44 -143 -60 -34 -16 -68 -29 -75 -29 -7 0 -17
-4 -22 -8 -6 -5 -39 -19 -75 -32 -36 -13 -69 -26 -75 -30 -5 -4 -22 -10 -37
-14 -31 -7 -50 12 -118 123 -25 40 -53 84 -62 99 -10 15 -21 34 -25 42 -4 8
-11 20 -15 25 -5 6 -46 66 -91 135 -45 69 -94 140 -107 158 -30 41 -38 35 143
108 70 28 130 54 134 58 3 3 13 6 22 6 9 0 28 6 43 14 15 8 42 17 60 21 18 4
38 10 43 13 10 7 315 110 326 111 4 1 11 -5 17 -11z m13127 -214 c28 -9 66
-22 85 -30 19 -7 76 -27 125 -45 50 -18 94 -36 100 -41 5 -4 15 -8 23 -8 8 0
28 -6 45 -14 18 -8 55 -24 82 -36 28 -11 58 -25 67 -30 10 -6 25 -10 33 -10
27 0 27 -27 1 -69 -14 -22 -26 -43 -26 -46 0 -3 -11 -22 -23 -43 -13 -20 -40
-66 -59 -102 -19 -36 -50 -92 -68 -125 -18 -33 -42 -78 -54 -100 -12 -22 -29
-41 -38 -43 -17 -3 -91 32 -443 212 -176 90 -199 105 -177 113 6 3 12 9 12 14
0 4 34 65 75 134 41 69 75 129 75 135 0 5 4 10 9 10 5 0 12 11 15 25 4 14 11
25 16 25 6 0 10 5 10 10 0 16 44 80 55 80 6 0 33 -7 60 -16z m-14137 -181 c21
-24 96 -131 127 -181 6 -9 14 -21 18 -26 5 -6 48 -69 97 -141 49 -71 107 -156
130 -187 23 -32 39 -62 36 -67 -3 -4 -34 -19 -68 -31 -35 -13 -67 -27 -73 -32
-5 -4 -16 -8 -25 -8 -8 -1 -33 -9 -55 -20 -22 -11 -46 -19 -53 -20 -7 0 -20
-4 -30 -10 -9 -5 -87 -38 -173 -74 -86 -36 -181 -76 -210 -90 -85 -39 -102
-40 -125 -14 -11 13 -62 79 -114 148 -110 147 -236 303 -302 375 -27 29 -48
56 -48 62 0 5 26 20 58 33 31 13 86 36 122 52 36 16 74 33 85 38 11 5 36 15
55 24 19 8 60 24 90 36 30 11 64 25 75 30 11 5 79 30 150 55 72 26 144 53 160
61 41 19 46 18 73 -13z m14943 -140 c27 -10 49 -21 49 -25 0 -5 7 -8 16 -8 9
0 30 -6 47 -14 18 -8 55 -24 82 -36 80 -34 85 -36 197 -92 59 -29 116 -57 127
-63 12 -5 21 -13 21 -17 0 -5 7 -8 15 -8 8 0 15 -7 15 -16 0 -18 -69 -137 -82
-142 -4 -2 -8 -8 -8 -13 0 -7 -44 -71 -132 -191 -7 -10 -33 -47 -58 -83 -43
-64 -46 -66 -80 -61 -19 3 -36 10 -38 16 -2 5 -8 10 -13 10 -11 0 -51 18 -194
85 -185 87 -325 156 -329 163 -2 4 15 39 40 77 24 39 44 76 44 83 0 6 5 12 10
12 6 0 10 5 10 11 0 5 41 77 90 160 50 82 90 154 90 159 0 15 26 12 81 -7z
m-15935 -430 c94 -101 165 -180 189 -211 13 -16 18 -22 88 -107 86 -104 87
-104 87 -114 0 -5 -26 -22 -57 -37 -32 -14 -95 -44 -139 -65 -45 -22 -86 -39
-93 -39 -6 0 -11 -4 -11 -10 0 -5 -5 -10 -11 -10 -13 0 -87 -35 -303 -141 -77
-38 -145 -69 -152 -69 -7 0 -17 6 -21 13 -8 11 -251 240 -338 317 -159 140
-195 173 -195 181 0 8 57 36 270 136 41 19 116 55 165 78 129 62 232 109 295
136 30 13 66 29 80 36 14 7 30 13 35 13 6 0 56 -48 111 -107z m16869 -18 c104
-52 213 -108 240 -124 28 -17 69 -40 93 -52 23 -12 42 -25 42 -28 0 -4 16 -15
35 -25 19 -11 35 -24 35 -30 0 -6 -19 -32 -42 -57 -24 -25 -61 -66 -82 -90
-21 -24 -89 -96 -151 -159 -61 -63 -118 -126 -127 -138 l-16 -24 -59 38 c-32
20 -74 46 -93 57 -41 24 -370 188 -417 208 -38 16 -39 19 -15 45 17 19 75 94
100 130 37 55 187 264 210 293 15 19 29 38 30 42 7 17 27 9 217 -86z m747
-425 c54 -33 103 -60 108 -60 6 0 10 -3 10 -8 0 -7 9 -13 66 -42 16 -8 34 -18
39 -23 6 -4 96 -65 202 -134 130 -85 190 -130 185 -139 -20 -34 -473 -504
-487 -504 -6 0 -93 67 -105 81 -3 3 -59 45 -125 94 -66 49 -124 93 -130 99 -5
6 -27 22 -47 36 -21 14 -38 28 -38 33 0 4 -6 7 -14 7 -8 0 -16 3 -18 8 -1 4
-25 24 -53 44 -27 21 -54 41 -60 45 -5 5 -29 21 -52 37 -25 16 -40 33 -36 40
4 6 94 99 201 207 106 108 200 206 208 218 8 12 22 21 31 21 8 0 60 -27 115
-60z m-18826 -12 c16 -12 31 -25 34 -28 3 -3 41 -37 85 -75 44 -38 85 -74 91
-80 6 -5 24 -21 40 -34 16 -14 61 -52 99 -86 39 -34 85 -75 104 -91 82 -69 96
-83 91 -88 -3 -2 -80 -43 -170 -89 -178 -91 -284 -148 -340 -181 -19 -12 -53
-30 -75 -41 -22 -11 -46 -26 -53 -32 -7 -7 -18 -13 -23 -13 -5 0 -38 -18 -74
-40 -36 -22 -68 -40 -71 -40 -5 0 -74 46 -109 73 -68 52 -177 127 -184 127 -5
0 -11 4 -13 8 -1 4 -32 26 -68 47 -36 21 -67 42 -70 45 -3 3 -23 17 -45 30
-22 13 -42 27 -45 30 -3 3 -27 17 -53 30 -87 45 -88 51 -8 99 38 22 74 41 80
41 6 0 11 5 11 10 0 6 5 10 11 10 6 0 48 22 93 49 86 52 128 76 216 123 30 17
80 45 111 64 80 48 282 153 295 154 6 0 24 -10 40 -22z m-5219 -254 c67 -37
142 -108 190 -177 15 -23 54 -78 86 -122 53 -72 90 -141 157 -290 59 -131 186
-562 210 -715 5 -30 16 -86 24 -125 31 -145 54 -331 86 -695 6 -58 10 -219 10
-358 1 -281 3 -271 -69 -342 -77 -75 -71 -91 -67 181 6 404 -13 745 -58 1029
-34 213 -89 490 -101 510 -3 4 -22 74 -44 156 -22 82 -46 167 -55 189 -19 52
-120 279 -185 418 -28 59 -51 111 -51 115 -1 14 -62 88 -140 168 -44 46 -80
85 -80 88 0 13 27 4 87 -30z m-134 -106 c48 -51 87 -98 87 -105 0 -6 4 -13 8
-15 20 -8 162 -241 162 -265 0 -7 5 -13 11 -13 6 0 9 -12 7 -27 -4 -36 -38
-53 -108 -53 -30 0 -102 -9 -160 -20 -58 -10 -170 -30 -250 -45 -80 -14 -158
-30 -174 -35 -16 -6 -33 -10 -37 -10 -4 0 -31 47 -59 105 -42 88 -109 209
-151 275 -5 8 -12 23 -15 33 -4 9 -10 17 -15 17 -5 0 -9 6 -9 14 0 8 -21 42
-46 76 -25 34 -44 63 -42 64 28 16 65 26 118 31 36 4 79 11 95 16 28 9 152 22
365 38 52 4 102 8 110 9 8 1 54 -39 103 -90z m-1033 -118 c43 -22 90 -58 140
-109 92 -93 120 -133 197 -281 33 -63 65 -124 71 -135 65 -112 200 -559 248
-817 58 -316 67 -382 100 -763 28 -323 13 -851 -35 -1210 -21 -153 -63 -365
-98 -495 -14 -52 -28 -106 -31 -120 -3 -14 -11 -34 -18 -46 -8 -11 -23 -47
-34 -80 -11 -32 -33 -90 -50 -129 -16 -38 -31 -81 -34 -95 -10 -49 -125 -227
-194 -301 -119 -127 -222 -177 -341 -165 -178 18 -369 207 -527 518 -30 59
-54 113 -54 120 0 7 20 -7 44 -31 35 -34 53 -44 88 -48 101 -12 156 92 199
377 23 154 24 277 3 417 -25 173 -60 261 -125 317 -37 31 -49 36 -94 36 -46 0
-56 -4 -87 -35 -54 -54 -82 -131 -100 -280 -16 -126 -16 -334 0 -445 6 -47 14
-105 17 -130 l6 -45 -15 33 c-16 34 -70 199 -86 262 -5 19 -16 58 -24 86 -14
46 -61 276 -95 464 -16 91 -29 202 -41 365 -6 77 -15 183 -20 235 -7 72 -7
570 1 680 12 180 52 508 75 613 9 39 24 113 34 164 96 477 293 878 510 1038
80 59 134 76 225 71 66 -3 92 -9 145 -36z m26019 -47 c17 -10 31 -21 31 -25 0
-5 5 -8 11 -8 6 0 44 -28 84 -62 81 -70 189 -160 220 -183 47 -36 148 -116
160 -128 7 -6 38 -32 68 -57 31 -25 56 -50 57 -57 0 -6 -35 -44 -77 -84 -43
-40 -165 -160 -272 -267 -106 -106 -197 -192 -201 -190 -5 2 -66 59 -137 128
-70 69 -175 166 -233 216 -58 50 -136 121 -174 157 -59 56 -68 69 -60 86 13
27 466 491 481 491 6 0 25 -8 42 -17z m-20464 -282 c317 -192 343 -213 293
-237 -48 -22 -113 -59 -116 -66 -2 -5 -8 -8 -14 -8 -6 0 -58 -29 -117 -64 -58
-35 -120 -72 -137 -82 -88 -53 -217 -134 -286 -181 -43 -29 -85 -53 -93 -53
-9 0 -69 32 -133 71 -63 39 -141 85 -171 101 -31 17 -81 44 -111 61 -30 16
-84 45 -120 64 -75 39 -110 67 -110 87 0 12 111 94 160 118 8 5 49 30 90 58
129 86 406 252 470 283 14 6 27 14 30 18 6 7 31 17 45 18 6 0 150 -84 320
-188z m-4147 -296 c13 -51 18 -67 48 -165 9 -30 22 -77 28 -105 6 -27 14 -54
18 -60 3 -5 9 -37 13 -70 4 -33 11 -64 15 -70 4 -5 11 -37 14 -70 4 -33 9 -74
12 -91 l6 -31 -139 -12 c-76 -7 -163 -16 -193 -22 -30 -5 -89 -14 -130 -19
-41 -5 -95 -14 -120 -19 -63 -14 -144 -13 -158 1 -7 7 -12 22 -12 34 0 13 -4
25 -9 28 -5 3 -12 33 -16 66 -4 33 -10 62 -15 65 -4 3 -11 31 -15 62 -4 32
-10 63 -15 68 -4 6 -10 24 -13 40 -12 62 -32 140 -38 150 -4 6 -10 30 -13 55
-4 25 -12 55 -18 67 -23 47 -16 50 200 84 37 6 76 14 87 19 36 16 327 48 414
46 33 -1 36 -4 49 -51z m25652 -291 c102 -98 274 -276 337 -349 104 -121 153
-180 153 -186 0 -4 -26 -26 -57 -50 -32 -23 -74 -55 -93 -71 -19 -16 -39 -32
-45 -36 -5 -5 -69 -55 -141 -112 -72 -58 -141 -112 -154 -120 -12 -8 -33 -23
-45 -32 -13 -10 -28 -18 -33 -18 -6 0 -12 -3 -14 -8 -1 -4 -25 -22 -53 -40
l-50 -32 -34 37 c-18 21 -54 63 -80 94 -89 109 -247 284 -383 424 -76 77 -138
144 -138 148 0 11 336 334 450 433 25 21 54 48 65 59 11 11 35 33 54 48 l34
28 76 -73 c42 -40 110 -105 151 -144z m-22812 70 c57 -25 406 -198 412 -204 3
-3 21 -13 40 -23 106 -57 130 -74 130 -99 0 -15 -43 -51 -140 -118 -28 -19
-192 -137 -205 -147 -6 -4 -44 -30 -85 -58 -78 -51 -185 -130 -208 -152 -22
-21 -50 -15 -151 33 -53 25 -109 51 -126 58 -16 7 -68 31 -115 53 -117 56
-147 69 -208 93 -57 22 -102 48 -102 59 0 4 28 29 61 57 34 27 69 56 78 64 9
8 64 51 121 95 114 87 114 87 148 114 13 11 53 39 90 63 37 23 69 45 72 48 12
14 126 79 138 80 8 0 30 -7 50 -16z m-2634 -726 c3 -46 10 -186 15 -313 6
-126 16 -261 21 -299 8 -54 8 -72 -2 -82 -9 -8 -108 -15 -323 -23 -170 -6
-335 -12 -365 -14 l-55 -2 -7 90 c-4 50 -12 169 -18 265 -6 96 -15 185 -20
198 -6 13 -10 57 -10 98 0 69 2 75 24 83 37 15 192 39 317 51 63 6 146 15 184
19 39 5 107 9 152 10 l82 1 5 -82z m1739 11 c34 -11 89 -33 122 -48 33 -15 98
-43 145 -62 47 -19 87 -37 88 -41 2 -5 8 -8 13 -8 11 0 82 -30 138 -58 47 -24
48 -36 4 -63 -21 -13 -42 -27 -48 -32 -5 -4 -48 -35 -95 -67 -137 -96 -197
-138 -344 -248 -127 -95 -142 -103 -172 -97 -18 3 -46 12 -61 20 -15 8 -36 15
-45 15 -9 0 -20 5 -23 10 -3 6 -13 10 -22 10 -8 0 -29 6 -46 14 -18 8 -75 28
-127 46 -52 17 -102 35 -110 39 -9 5 -31 12 -50 16 -19 4 -39 11 -45 15 -5 4
-25 11 -42 15 -45 9 -49 20 -17 47 15 13 32 28 38 33 6 6 40 33 76 60 36 28
67 52 70 55 3 3 28 24 55 45 28 22 55 45 60 51 6 6 32 26 60 45 27 19 54 38
60 42 71 54 177 127 185 127 6 0 10 4 10 8 0 9 37 30 53 31 4 1 36 -8 70 -20z
m24432 -191 c22 -28 45 -58 50 -67 6 -9 12 -18 15 -21 3 -3 24 -27 45 -55 22
-27 42 -52 45 -55 3 -3 10 -12 15 -21 12 -19 111 -159 123 -174 14 -18 138
-228 175 -297 42 -80 48 -72 -103 -147 -58 -30 -109 -57 -115 -61 -12 -9 -119
-68 -196 -107 -30 -16 -60 -34 -67 -40 -7 -7 -20 -13 -28 -13 -8 0 -14 -4 -14
-10 0 -5 -5 -10 -11 -10 -6 0 -40 -13 -76 -30 -101 -47 -106 -47 -134 -3 -14
21 -29 45 -32 53 -4 8 -15 27 -25 41 -9 15 -35 55 -56 90 -22 35 -44 66 -48
67 -4 2 -8 8 -8 14 0 5 -8 20 -17 33 -10 12 -24 31 -31 41 -51 76 -133 191
-142 202 -50 57 -111 146 -106 157 2 7 40 37 83 66 116 78 294 197 413 274 58
38 121 81 140 97 19 15 41 28 50 27 8 0 33 -23 55 -51z m-25341 -507 c3 -4 33
-11 67 -15 34 -3 67 -10 73 -15 6 -5 30 -12 53 -16 24 -4 45 -10 48 -15 3 -4
21 -11 41 -15 20 -3 44 -10 53 -15 9 -5 66 -24 126 -43 125 -40 136 -53 83
-98 -18 -15 -37 -28 -41 -29 -4 0 -18 -10 -30 -23 -12 -13 -53 -52 -92 -87
-38 -34 -119 -111 -178 -169 -104 -101 -110 -105 -150 -104 -69 1 -223 29
-377 68 -36 9 -94 22 -130 29 -80 16 -113 32 -103 51 11 18 251 272 382 402
90 89 108 103 136 103 19 0 36 -4 39 -9z m-776 -379 l3 -153 -53 -57 c-29 -31
-89 -93 -133 -137 -82 -81 -108 -111 -159 -177 l-28 -38 -214 0 c-239 0 -231
-3 -227 75 1 22 6 144 12 272 9 214 21 312 39 314 43 6 227 21 391 33 112 8
206 18 209 21 3 3 40 4 82 3 l75 -3 3 -153z m26804 -164 c230 -466 295 -615
333 -753 9 -33 21 -70 28 -83 9 -18 7 -25 -9 -37 -10 -8 -35 -17 -54 -21 -19
-4 -39 -10 -45 -14 -5 -4 -26 -11 -45 -15 -19 -4 -39 -11 -45 -15 -5 -4 -26
-11 -45 -15 -19 -4 -41 -11 -50 -15 -8 -5 -82 -30 -165 -56 -310 -97 -341
-107 -361 -116 -12 -6 -29 -8 -39 -6 -21 4 -49 50 -60 97 -4 18 -13 44 -21 59
-8 15 -14 35 -14 44 0 9 -4 19 -9 23 -5 3 -12 19 -16 36 -4 17 -13 42 -21 57
-8 15 -14 35 -14 44 0 9 -4 20 -10 23 -5 3 -10 13 -10 22 0 8 -6 29 -14 46 -7
18 -21 52 -31 77 -9 25 -21 54 -26 65 -5 11 -18 45 -29 75 -12 30 -27 69 -35
85 -7 17 -15 43 -17 60 -3 29 0 31 168 115 94 47 200 98 235 114 70 32 217
104 264 130 17 9 36 16 43 16 6 0 12 4 12 9 0 8 19 15 56 20 6 0 27 -32 46
-71z m-26647 -178 c6 -4 39 -11 75 -15 36 -4 70 -10 75 -14 6 -3 46 -11 90
-18 165 -24 295 -52 295 -62 0 -3 -22 -29 -48 -57 -26 -28 -56 -62 -67 -75
-23 -28 -97 -119 -107 -134 -5 -5 -24 -30 -43 -55 -19 -25 -39 -49 -43 -55
-28 -36 -102 -154 -102 -163 0 -23 -24 -23 -265 7 -44 6 -176 16 -292 22 -117
7 -213 14 -213 16 0 7 45 68 53 71 4 2 7 9 7 16 0 7 9 21 20 31 11 10 20 24
20 31 0 7 3 14 8 16 4 2 25 26 47 53 22 28 43 52 47 53 5 2 8 8 8 14 0 6 17
29 38 52 20 23 64 73 97 111 33 37 82 93 110 122 l49 54 66 -7 c36 -3 70 -10
75 -14z m-675 -398 c0 -4 -8 -18 -17 -31 -44 -56 -85 -108 -108 -136 -14 -16
-38 -48 -55 -70 -16 -22 -34 -45 -40 -52 -5 -7 -10 -17 -10 -22 0 -5 -6 -16
-12 -23 -19 -20 -37 -50 -50 -80 -12 -26 -35 -44 -46 -33 -3 2 0 60 7 127 6
68 14 155 17 193 8 121 3 115 92 116 42 0 100 4 127 9 71 11 95 11 95 2z m75
-463 c105 -5 261 -14 348 -18 96 -4 162 -12 169 -19 9 -9 4 -21 -20 -51 -18
-22 -32 -43 -32 -46 0 -4 -13 -24 -29 -44 -15 -20 -30 -40 -32 -46 -4 -10
-201 -311 -240 -367 -10 -15 -19 -32 -19 -38 0 -5 -4 -10 -9 -10 -5 0 -12 -12
-15 -26 l-7 -26 -167 6 c-92 3 -237 8 -322 12 -87 3 -178 2 -208 -4 -59 -11
-78 3 -50 36 8 9 19 28 26 42 11 24 27 51 45 74 21 30 68 92 77 103 5 7 10 15
10 18 0 6 40 66 51 75 3 3 16 23 29 45 13 22 28 45 33 50 15 19 92 141 112
178 11 20 23 37 27 37 5 0 8 7 8 15 0 8 6 15 13 15 6 0 98 -5 202 -11z m27765
-163 c0 -19 4 -37 9 -41 6 -3 13 -27 17 -53 3 -26 10 -51 14 -57 5 -5 11 -40
15 -78 4 -37 11 -69 15 -72 5 -3 11 -33 15 -67 4 -35 11 -67 15 -73 4 -5 11
-39 15 -75 4 -35 11 -71 16 -80 9 -17 24 -106 43 -265 8 -60 17 -124 21 -142
9 -38 -12 -53 -73 -53 -21 0 -63 -4 -93 -9 -30 -6 -117 -15 -194 -21 -249 -19
-358 -29 -458 -39 -142 -16 -136 -21 -162 169 -21 152 -38 244 -46 250 -3 3
-10 29 -14 57 -4 29 -11 55 -15 58 -4 3 -11 28 -15 55 -4 27 -11 52 -15 55 -4
3 -11 28 -15 55 -4 27 -10 52 -15 55 -4 3 -11 29 -15 60 -3 30 -11 57 -16 60
-5 4 -9 15 -9 25 0 22 43 45 102 55 24 4 48 11 53 15 6 4 32 11 59 15 27 3 56
11 65 15 9 5 36 14 61 19 25 5 90 21 145 36 55 14 132 33 170 41 134 29 180
40 195 47 22 9 51 15 83 16 24 1 27 -2 27 -33z m-4871 -330 c87 -24 159 -81
238 -193 35 -49 40 -83 23 -143 -6 -19 -30 -152 -55 -295 -110 -648 -207
-1024 -336 -1307 -149 -324 -414 -645 -602 -728 -215 -95 -386 100 -442 504
-20 146 -19 280 4 461 41 324 126 607 273 907 193 394 465 704 684 776 108 36
134 38 213 18z m5099 -1126 c5 -86 -16 -284 -45 -425 l-9 -40 -44 3 c-52 4
-91 -19 -200 -113 -73 -63 -90 -70 -163 -62 -54 5 -69 8 -130 25 -20 6 -38 8
-40 5 -7 -6 -86 16 -101 28 -88 73 -149 99 -187 79 -11 -7 -22 -10 -25 -8 -7
8 -24 276 -24 394 0 98 3 124 16 135 11 9 95 15 322 21 323 8 600 14 617 12 6
0 11 -25 13 -54z"/>
<path d="M11102 14750 c-44 -10 -66 -32 -95 -93 -35 -71 -48 -131 -61 -278
-40 -451 87 -834 256 -770 98 37 163 278 162 601 0 226 -19 327 -81 446 -25
48 -76 94 -103 94 -10 0 -24 2 -32 4 -7 2 -28 0 -46 -4z"/>
<path d="M11517 14157 c-50 -51 -69 -108 -92 -277 -30 -229 -15 -437 48 -633
50 -159 121 -221 210 -184 80 34 133 198 156 477 8 97 7 155 -3 255 -23 207
-57 306 -127 370 -35 31 -45 35 -94 35 -52 0 -58 -3 -98 -43z"/>
<path d="M10641 14004 c-29 -24 -50 -61 -79 -139 -37 -98 -48 -451 -20 -615
48 -282 135 -405 252 -356 53 22 77 68 126 241 5 17 17 101 26 189 15 137 16
175 5 280 -22 211 -58 323 -127 390 -34 33 -42 36 -95 36 -47 0 -63 -5 -88
-26z"/>
<path d="M11790 12999 c-68 -28 -107 -117 -135 -312 -45 -318 20 -694 138
-799 62 -56 140 -36 185 47 88 161 121 581 66 820 -17 72 -63 176 -92 209 -36
40 -109 56 -162 35z"/>
<path d="M10523 12828 c-81 -58 -118 -220 -118 -518 0 -209 6 -249 57 -412 24
-75 41 -108 72 -144 38 -43 46 -47 88 -48 71 -2 113 44 152 164 70 214 73 657
6 815 -32 76 -46 99 -81 130 -34 31 -46 35 -92 35 -38 0 -61 -6 -84 -22z"/>
<path d="M11171 12364 c-31 -39 -29 -113 3 -143 34 -32 101 -26 130 12 26 35
26 89 -1 124 -16 22 -29 29 -65 31 -40 3 -49 -1 -67 -24z"/>
<path d="M11672 11759 c-58 -17 -92 -80 -132 -244 -16 -68 -24 -383 -11 -475
31 -233 94 -382 177 -416 81 -34 144 21 188 166 92 306 65 774 -53 912 -52 61
-99 77 -169 57z"/>
<path d="M11182 11204 c-83 -66 -117 -212 -117 -509 0 -250 19 -357 89 -505
33 -69 52 -90 103 -115 30 -14 33 -14 67 8 46 32 60 47 78 82 85 169 113 565
59 820 -11 51 -17 68 -55 144 -46 95 -153 131 -224 75z"/>
<path d="M5995 12275 c-705 -76 -1389 -386 -2028 -920 -359 -300 -684 -670
-946 -1077 -108 -169 -123 -195 -222 -383 -63 -121 -171 -355 -203 -442 -123
-330 -221 -663 -257 -872 -6 -31 -17 -94 -25 -141 -129 -745 -81 -1572 136
-2335 118 -413 319 -852 565 -1230 480 -740 1154 -1296 1964 -1619 88 -36 312
-113 366 -127 17 -4 84 -21 150 -38 335 -88 731 -127 1115 -110 574 25 1133
171 1661 434 452 224 807 481 1149 831 588 602 918 1283 1037 2139 27 197 25
691 -4 905 -82 600 -254 1067 -523 1420 -65 85 -302 324 -383 385 -52 40 -135
83 -212 111 -38 13 -81 18 -180 18 -151 1 -222 -17 -322 -84 -212 -140 -310
-377 -259 -629 21 -101 58 -187 152 -351 141 -246 156 -283 183 -448 55 -332
65 -424 65 -637 0 -176 -3 -230 -22 -335 -46 -254 -94 -414 -169 -565 -177
-355 -521 -684 -928 -887 -321 -161 -650 -238 -1010 -238 -575 0 -1135 197
-1580 555 -188 151 -404 395 -552 621 -77 118 -207 378 -271 540 -103 264
-189 613 -222 909 -84 740 56 1529 387 2174 182 355 438 679 608 767 202 106
454 174 642 174 197 0 348 -49 643 -211 306 -168 427 -210 630 -216 213 -8
325 32 456 162 177 175 222 455 123 765 -28 87 -102 260 -145 339 -198 361
-585 589 -1097 646 -162 18 -304 17 -472 0z"/>
<path d="M28510 10874 c-394 -85 -832 -392 -1226 -859 -50 -59 -166 -214 -232
-310 -18 -26 -37 -44 -41 -39 -5 5 -16 38 -25 74 -59 221 -147 422 -242 555
-256 360 -681 377 -1124 46 -99 -74 -293 -262 -354 -343 -32 -43 -43 -42 -52
9 -4 20 -19 72 -35 116 -128 361 -432 558 -759 493 -175 -35 -329 -124 -480
-276 -291 -293 -490 -748 -490 -1119 0 -196 37 -301 141 -399 66 -62 135 -85
244 -80 98 5 175 39 279 123 38 30 73 55 77 55 65 0 175 -1774 153 -2465 -14
-431 -11 -657 10 -739 69 -263 245 -416 481 -416 141 0 255 49 361 156 121
120 189 288 228 559 42 293 48 466 47 1330 0 457 -2 895 -3 975 -2 132 -1 149
20 192 68 143 253 205 396 131 70 -36 110 -128 216 -498 57 -198 148 -537 184
-680 102 -408 194 -717 303 -1010 94 -254 150 -349 296 -501 187 -196 353
-278 562 -278 255 0 432 142 500 399 40 152 42 364 10 740 -8 94 -22 259 -30
367 -19 240 -41 459 -61 593 -21 146 -43 440 -50 670 -7 211 -1 252 43 323 30
47 96 108 143 132 66 33 186 33 261 -2 60 -27 70 -42 114 -168 15 -41 49 -127
77 -190 66 -151 101 -250 155 -445 103 -371 247 -817 360 -1115 30 -80 73
-199 95 -264 71 -211 136 -336 266 -509 99 -131 336 -370 428 -430 248 -162
436 -216 709 -204 186 9 257 36 366 139 62 58 81 99 87 185 4 65 1 82 -28 155
-44 111 -118 241 -194 341 -34 45 -111 154 -171 242 -59 88 -125 181 -147 206
-21 26 -38 52 -38 58 0 6 -4 11 -8 11 -19 0 -139 267 -197 435 -14 43 -47 177
-64 265 -21 109 -98 433 -120 503 -5 18 -17 73 -25 122 -15 84 -23 125 -62
315 -20 96 -31 153 -43 215 -5 28 -18 86 -29 130 -22 89 -37 169 -102 570 -11
66 -27 152 -36 190 -8 39 -22 97 -29 130 -8 33 -16 69 -19 80 -2 11 -15 65
-27 120 -25 112 -64 211 -144 362 -85 160 -142 241 -240 339 -73 74 -107 99
-175 132 -47 23 -112 49 -145 57 -75 19 -276 19 -365 -1z"/>
<path d="M16305 10315 c-301 -38 -581 -163 -904 -405 -229 -171 -413 -353
-624 -618 -54 -67 -102 -120 -107 -117 -5 3 -21 31 -36 63 -152 323 -437 484
-703 395 -118 -39 -266 -162 -346 -288 -74 -116 -125 -260 -125 -355 0 -67 36
-144 89 -192 52 -47 101 -66 249 -98 194 -42 219 -70 282 -320 63 -248 90
-448 90 -672 0 -137 -21 -445 -35 -518 -3 -14 -9 -65 -15 -115 -13 -117 -51
-392 -85 -620 -8 -55 -22 -149 -31 -210 -8 -60 -22 -155 -30 -210 -18 -128
-42 -315 -54 -430 -12 -105 -21 -157 -60 -355 -45 -230 -56 -359 -41 -487 40
-345 234 -581 551 -668 102 -28 263 -24 365 9 197 63 334 210 410 441 72 216
84 400 85 1331 0 720 4 831 46 1154 68 533 71 551 95 650 44 179 206 542 333
747 195 315 423 523 573 523 80 0 172 -147 233 -375 52 -194 77 -458 86 -895
6 -297 1 -469 -31 -1110 -36 -723 -8 -1129 105 -1495 17 -55 44 -150 60 -212
58 -225 132 -350 329 -555 174 -182 329 -275 541 -325 113 -26 379 -24 524 6
194 39 326 90 419 165 87 69 145 207 133 313 -15 131 -78 234 -376 613 -204
259 -234 307 -315 509 -118 294 -167 609 -210 1351 -21 377 -38 833 -32 872 7
44 -10 394 -29 593 -50 517 -204 1018 -419 1360 -221 352 -462 522 -784 555
-57 5 -104 9 -105 9 0 -1 -46 -7 -101 -14z"/>
<path d="M20755 10060 c-198 -36 -330 -80 -490 -164 -524 -274 -896 -772
-1085 -1453 -187 -674 -181 -1475 15 -2158 57 -200 157 -458 249 -645 309
-629 760 -1047 1301 -1205 654 -191 1268 -43 1759 424 242 231 373 419 451
650 77 227 100 369 98 621 -1 191 -9 299 -53 698 -9 89 -30 185 -62 297 -18
63 -39 110 -127 285 -37 73 -77 100 -150 100 -73 0 -111 -24 -151 -92 -27 -48
-58 -134 -74 -213 -4 -16 -11 -136 -15 -265 -6 -152 -15 -263 -26 -315 -78
-367 -216 -657 -368 -773 -143 -109 -318 -155 -501 -131 -468 60 -872 483
-1076 1124 -39 123 -80 291 -80 328 0 33 6 33 79 2 80 -33 186 -62 306 -82
139 -24 452 -24 590 1 436 76 798 260 1060 538 92 97 133 153 203 268 190 317
211 622 67 1005 -161 432 -431 764 -776 954 -182 101 -364 164 -577 201 -152
26 -421 27 -567 0z m415 -1032 c77 -37 187 -143 240 -233 48 -81 79 -179 80
-247 0 -89 -8 -93 -420 -215 -343 -101 -498 -149 -600 -184 -47 -16 -91 -29
-97 -29 -18 0 -16 21 12 133 106 429 343 759 578 807 64 13 135 2 207 -32z"/>
<path d="M11938 9310 c-113 -30 -224 -93 -418 -238 -307 -230 -445 -400 -457
-566 -7 -91 8 -142 56 -197 49 -57 108 -85 201 -100 41 -6 85 -13 96 -15 30
-5 49 -59 70 -190 13 -88 16 -180 16 -479 0 -203 -5 -449 -11 -545 -42 -661
-31 -1298 29 -1642 81 -472 248 -733 530 -830 167 -57 502 -2 752 123 134 67
239 179 317 336 70 141 104 322 128 677 16 235 16 270 -1 590 -33 659 -85
1051 -225 1701 -102 476 -237 857 -384 1083 -96 148 -200 235 -341 284 -70 24
-96 28 -186 27 -67 -1 -129 -7 -172 -19z"/>
</g>
</svg>
